<svg xmlns="http://www.w3.org/2000/svg" viewBox="0 0 260 110">
  <g opacity=".52">
    <path d="M54 74C30 54 22 43 24 31c2-11 15-17 25-7 10-10 23-4 25 7 2 12-6 23-30 43Z" fill="#b94a5a"/>
    <path d="M138 88c-31-25-41-40-38-57 3-15 20-22 33-8 13-14 31-7 33 8 3 17-8 32-38 57Z" fill="#9c2433"/>
    <path d="M213 68c-20-17-27-27-25-39 2-10 14-15 23-6 9-9 22-4 24 6 2 12-5 22-25 39Z" fill="#d49aa2"/>
    <circle cx="82" cy="22" r="3" fill="#f3c6ca"/>
    <circle cx="191" cy="88" r="3" fill="#f3c6ca"/>
    <circle cx="32" cy="88" r="2.5" fill="#f3c6ca"/>
  </g>
</svg>
