<svg xmlns="http://www.w3.org/2000/svg" viewBox="0 0 260 90">
  <g opacity=".62">
    <path d="M36 76c22 0 32-15 28-36C61 20 50 8 37 8S14 22 11 40C7 61 16 76 36 76Z" fill="#f2d7bc" stroke="#9a6340" stroke-width="2"/>
    <path d="M18 39c12 8 26 8 43 0M19 53c15-6 29-6 43 0" fill="none" stroke="#b88962" stroke-width="2"/>
    <path d="M118 75c20 0 29-14 26-33-3-18-13-29-25-29S98 25 95 42c-3 19 5 33 23 33Z" fill="#eadfcf" stroke="#8b6f8e" stroke-width="2"/>
    <path d="M99 46c14-7 27-7 41 0M101 58c11 7 24 7 36 0" fill="none" stroke="#b79abb" stroke-width="2"/>
    <path d="M198 72c7-18 1-34-13-50M201 72c15-15 19-32 12-51" fill="none" stroke="#6f7d52" stroke-width="3" stroke-linecap="round"/>
    <circle cx="190" cy="31" r="7" fill="#d7bd78"/>
    <circle cx="213" cy="35" r="7" fill="#c8a06a"/>
  </g>
</svg>
